HIERARCHY
ROOT Hips
{
  OFFSET 0.0000 0.0000 0.0000
  CHANNELS 6 Xposition Yposition Zposition Zrotation Xrotation Yrotation
  JOINT LeftHip
  {
    OFFSET 5.5000 0.0000 0.0000
    CHANNELS 3 Zrotation Xrotation Yrotation
    JOINT LeftKnee
    {
      OFFSET 0.0000 -17.5000 0.0000
      CHANNELS 3 Zrotation Xrotation Yrotation
      JOINT LeftAnkle
      {
        OFFSET 0.0000 -17.0000 0.0000
        CHANNELS 3 Zrotation Xrotation Yrotation
        End Site
        {
            OFFSET 0.0000 -4.7000 -2.0000
        }
      }
    }
  }
  JOINT RightHip
  {
    OFFSET -5.5000 0.0000 0.0000
    CHANNELS 3 Zrotation Xrotation Yrotation
    JOINT RightKnee
    {
      OFFSET 0.0000 -17.5000 0.0000
      CHANNELS 3 Zrotation Xrotation Yrotation
      JOINT RightAnkle
      {
        OFFSET 0.0000 -17.0000 0.0000
        CHANNELS 3 Zrotation Xrotation Yrotation
        End Site
        {
            OFFSET 0.0000 -4.7000 -2.0000
        }
      }
    }
  }
  JOINT Chest
  {
    OFFSET 0.0000 3.0000 -1.0000
    CHANNELS 3 Zrotation Xrotation Yrotation
    JOINT LeftCollar
    {
      OFFSET -0.0000 18.0000 1.0000
      CHANNELS 3 Zrotation Xrotation Yrotation
      JOINT LeftShoulder
      {
        OFFSET 6.5000 0.0000 0.0000
        CHANNELS 3 Zrotation Xrotation Yrotation
        JOINT LeftElbow
        {
          OFFSET -0.0000 -11.0000 0.0000
          CHANNELS 3 Zrotation Xrotation Yrotation
          JOINT LeftWrist
          {
            OFFSET -0.0000 -10.5000 0.0000
            CHANNELS 3 Zrotation Xrotation Yrotation
            End Site
            {
                OFFSET 0.0000 -6.0000 0.0000
            }
          }
        }
      }
    }
    JOINT RightCollar
    {
      OFFSET -0.0000 18.0000 1.0000
      CHANNELS 3 Zrotation Xrotation Yrotation
      JOINT RightShoulder
      {
        OFFSET -6.5000 0.0000 0.0000
        CHANNELS 3 Zrotation Xrotation Yrotation
        JOINT RightElbow
        {
          OFFSET 0.0000 -11.0000 0.0000
          CHANNELS 3 Zrotation Xrotation Yrotation
          JOINT RightWrist
          {
            OFFSET -0.0000 -10.5000 0.0000
            CHANNELS 3 Zrotation Xrotation Yrotation
            End Site
            {
                OFFSET 0.0000 -6.0000 -0.0000
            }
          }
        }
      }
    }
    JOINT Neck
    {
      OFFSET -0.0000 18.0000 1.0000
      CHANNELS 3 Zrotation Xrotation Yrotation
      JOINT Head
      {
        OFFSET 0.0000 3.0000 0.0000
        CHANNELS 3 Zrotation Xrotation Yrotation
        End Site
        {
            OFFSET 0.0000 7.0000 0.0000
        }
      }
    }
  }
}
MOTION
Frames:	27
Frame Time:	0.033333
-0.3952 40.1746 0.2306 -0.09 -0.15 0.59 -2.96 -2.57 -0.38 -0.00 12.55 0.04 0.81 -6.58 1.13 4.07 -2.99 1.24 0.00 13.09 -0.13 -2.22 -5.88 -0.55 -0.53 -0.20 -0.55 0.00 0.00 0.00 10.16 -4.30 -3.40 -0.00 -9.89 0.94 -11.75 0.38 -1.11 0.00 0.00 0.00 -10.05 -4.46 3.21 0.00 -9.59 -0.91 11.91 -0.04 2.08 0.00 0.00 0.00 -1.41 -1.75 -2.60 
-0.3948 40.1746 0.2308 -0.09 -0.15 0.59 -2.96 -2.56 -0.38 -0.00 12.54 0.03 0.81 -6.57 1.13 4.07 -2.98 1.23 -0.00 13.08 -0.13 -2.22 -5.88 -0.54 -0.54 -0.20 -0.46 0.00 0.00 0.00 10.17 -4.29 -3.34 -0.00 -9.89 0.95 -11.76 0.38 -1.20 0.00 0.00 0.00 -10.04 -4.47 3.27 0.00 -9.59 -0.91 11.90 -0.04 1.99 0.00 0.00 0.00 -1.34 -1.75 -2.54 
-0.3917 40.1746 0.2317 -0.10 -0.15 0.58 -2.96 -2.56 -0.39 0.00 12.53 0.03 0.82 -6.57 1.16 4.06 -2.98 1.23 0.00 13.08 -0.14 -2.22 -5.88 -0.52 -0.55 -0.20 -0.44 0.00 0.00 0.00 10.17 -4.29 -3.36 0.00 -9.89 0.94 -11.75 0.38 -1.16 0.00 0.00 0.00 -10.04 -4.47 3.25 -0.00 -9.59 -0.92 11.91 -0.04 2.03 0.00 0.00 0.00 -1.30 -1.75 -2.55 
-0.3856 40.1746 0.2336 -0.10 -0.15 0.56 -2.97 -2.55 -0.40 -0.00 12.53 0.02 0.83 -6.58 1.20 4.05 -2.98 1.21 0.00 13.08 -0.14 -2.21 -5.88 -0.48 -0.55 -0.20 -0.44 0.00 0.00 0.00 10.17 -4.30 -3.37 0.00 -9.89 0.94 -11.74 0.37 -1.12 0.00 0.00 0.00 -10.04 -4.47 3.23 -0.00 -9.59 -0.92 11.92 -0.04 2.07 0.00 0.00 0.00 -1.28 -1.75 -2.57 
-0.3765 40.1746 0.2363 -0.11 -0.15 0.53 -2.98 -2.55 -0.41 0.00 12.53 0.02 0.84 -6.58 1.25 4.04 -2.98 1.20 -0.00 13.08 -0.14 -2.19 -5.88 -0.43 -0.56 -0.20 -0.45 0.00 0.00 0.00 10.17 -4.30 -3.38 -0.00 -9.89 0.94 -11.73 0.37 -1.09 0.00 0.00 0.00 -10.04 -4.47 3.23 0.00 -9.59 -0.92 11.93 -0.04 2.10 0.00 0.00 0.00 -1.26 -1.75 -2.57 
-0.3801 40.1746 0.1869 -0.12 -0.15 0.49 -2.97 -2.62 -0.42 -0.00 12.52 0.02 0.84 -6.50 1.29 4.06 -3.06 1.28 0.00 13.06 -0.10 -2.20 -5.78 -0.51 -0.56 -0.20 -0.46 0.00 0.00 0.00 10.17 -4.30 -3.38 -0.00 -9.89 0.94 -11.72 0.37 -1.08 0.00 0.00 0.00 -10.04 -4.47 3.23 -0.00 -9.59 -0.91 11.94 -0.04 2.12 0.00 0.00 0.00 -1.26 -1.75 -2.57 
-0.3753 40.1746 0.1469 -0.13 -0.15 0.45 -2.97 -2.69 -0.43 -0.00 12.53 0.02 0.84 -6.45 1.34 4.06 -3.13 1.30 -0.00 13.07 -0.11 -2.19 -5.71 -0.49 -0.57 -0.20 -0.47 0.00 0.00 0.00 10.17 -4.30 -3.38 -0.00 -9.89 0.94 -11.72 0.37 -1.06 0.00 0.00 0.00 -10.04 -4.47 3.23 0.00 -9.59 -0.91 11.94 -0.04 2.13 0.00 0.00 0.00 -1.25 -1.75 -2.57 
-0.3659 40.1746 0.1406 -0.14 -0.15 0.41 -2.98 -2.69 -0.43 -0.00 12.53 0.02 0.86 -6.44 1.39 4.06 -3.15 1.32 0.00 13.08 -0.12 -2.17 -5.70 -0.44 -0.57 -0.20 -0.48 0.00 0.00 0.00 10.17 -4.30 -3.38 -0.00 -9.89 0.94 -11.72 0.37 -1.06 0.00 0.00 0.00 -10.04 -4.47 3.23 0.00 -9.59 -0.91 11.94 -0.04 2.13 0.00 0.00 0.00 -1.26 -1.75 -2.48 
-0.3595 40.1746 0.1415 -0.15 -0.15 0.37 -2.99 -2.69 -0.43 0.00 12.53 0.03 0.87 -6.45 1.43 4.05 -3.16 1.32 -0.00 13.09 -0.12 -2.16 -5.70 -0.40 -0.57 -0.20 -0.47 0.00 0.00 0.00 10.17 -4.30 -3.37 -0.00 -9.89 0.94 -11.72 0.37 -1.06 0.00 0.00 0.00 -10.04 -4.47 3.23 0.00 -9.59 -0.91 11.94 -0.04 2.13 0.00 0.00 0.00 -1.18 -1.75 -2.43 
-0.3585 40.1748 0.1433 -0.16 -0.15 0.33 -2.98 -2.73 -0.43 -0.00 12.62 0.04 0.87 -6.51 1.46 4.06 -3.17 1.33 0.00 13.11 -0.13 -2.16 -5.71 -0.36 -0.57 -0.20 -0.47 0.00 0.00 0.00 10.17 -4.30 -3.37 -0.00 -9.89 0.94 -11.72 0.37 -1.06 0.00 0.00 0.00 -10.04 -4.47 3.23 0.00 -9.59 -0.91 11.94 -0.04 2.13 0.00 0.00 0.00 -1.14 -1.75 -2.41 
-0.3567 40.1749 0.1475 -0.17 -0.15 0.30 -2.98 -2.74 -0.42 -0.00 12.66 0.05 0.87 -6.54 1.48 4.07 -3.17 1.34 -0.00 13.12 -0.13 -2.15 -5.72 -0.34 -0.57 -0.20 -0.46 0.00 0.00 0.00 10.17 -4.30 -3.37 -0.00 -9.89 0.94 -11.73 0.37 -1.07 0.00 0.00 0.00 -10.04 -4.47 3.23 0.00 -9.59 -0.91 11.87 -0.04 2.12 0.00 0.00 0.00 -1.12 -1.75 -2.40 
-0.3550 40.1748 0.1518 -0.17 -0.14 0.28 -2.97 -2.73 -0.41 -0.00 12.68 0.05 0.87 -6.56 1.48 4.07 -3.17 1.35 0.00 13.12 -0.13 -2.15 -5.73 -0.34 -0.56 -0.20 -0.44 0.00 0.00 0.00 10.17 -4.30 -3.37 0.00 -9.89 0.94 -11.73 0.37 -1.09 0.00 0.00 0.00 -10.04 -4.47 3.24 0.00 -9.58 -0.91 11.82 -0.05 2.10 0.00 0.00 0.00 -1.20 -1.75 -2.40 
-0.3552 40.1751 0.1519 -0.17 -0.14 0.27 -2.97 -2.73 -0.40 0.00 12.67 0.05 0.87 -6.56 1.48 4.07 -3.17 1.36 0.00 13.12 -0.13 -2.15 -5.73 -0.34 -0.56 -0.20 -0.43 0.00 0.00 0.00 10.17 -4.30 -3.37 -0.00 -9.89 0.94 -11.74 0.37 -1.10 0.00 0.00 0.00 -10.04 -4.47 3.23 0.00 -9.58 -0.91 11.79 -0.05 2.09 0.00 0.00 0.00 -1.24 -1.84 -2.31 
-0.3554 40.1785 0.1519 -0.17 -0.14 0.26 -2.97 -2.72 -0.39 0.00 12.67 0.05 0.87 -6.56 1.47 4.08 -3.17 1.37 0.00 13.12 -0.13 -2.15 -5.73 -0.34 -0.56 -0.20 -0.42 0.00 0.00 0.00 10.17 -4.30 -3.37 0.00 -9.89 0.94 -11.74 0.37 -1.11 0.00 0.00 0.00 -10.04 -4.47 3.23 -0.00 -9.58 -0.91 11.78 -0.05 2.09 0.00 0.00 0.00 -1.26 -1.88 -2.27 
-0.3558 40.1802 0.1520 -0.17 -0.14 0.26 -2.97 -2.72 -0.38 0.00 12.66 0.05 0.87 -6.55 1.47 4.08 -3.17 1.38 0.00 13.12 -0.13 -2.15 -5.73 -0.34 -0.56 -0.20 -0.42 0.00 0.00 0.00 10.17 -4.30 -3.38 -0.00 -9.89 0.94 -11.74 0.37 -1.11 0.00 0.00 0.00 -10.04 -4.47 3.23 0.00 -9.58 -0.91 11.77 -0.05 2.09 0.00 0.00 0.00 -1.26 -1.90 -2.25 
-0.3561 40.1802 0.1520 -0.17 -0.14 0.26 -2.97 -2.72 -0.38 0.00 12.66 0.05 0.87 -6.55 1.48 4.08 -3.17 1.38 0.00 13.12 -0.13 -2.15 -5.73 -0.34 -0.56 -0.14 -0.41 0.00 0.00 0.00 10.16 -4.32 -3.37 0.00 -9.91 0.95 -11.74 0.36 -1.11 0.00 0.00 0.00 -10.04 -4.49 3.23 -0.00 -9.61 -0.92 11.75 -0.06 2.08 0.00 0.00 0.00 -1.27 -1.82 -2.25 
-0.3564 40.1798 0.1521 -0.17 -0.14 0.26 -2.96 -2.72 -0.38 0.00 12.66 0.04 0.87 -6.55 1.48 4.08 -3.17 1.39 -0.00 13.12 -0.13 -2.15 -5.73 -0.34 -0.56 -0.11 -0.41 0.00 0.00 0.00 10.16 -4.35 -3.37 0.00 -9.92 0.95 -11.74 0.37 -1.11 0.00 0.00 0.00 -10.04 -4.53 3.22 -0.00 -9.61 -0.92 11.75 -0.05 2.08 0.00 0.00 0.00 -1.27 -1.83 -2.24 
-0.3567 40.1779 0.1373 -0.18 -0.14 0.26 -2.96 -2.77 -0.37 -0.00 12.72 0.05 0.87 -6.56 1.46 4.08 -3.19 1.39 0.00 13.12 -0.14 -2.15 -5.71 -0.34 -0.55 -0.10 -0.41 0.00 0.00 0.00 10.16 -4.38 -3.36 -0.00 -9.89 0.95 -11.74 0.36 -1.18 0.00 0.00 0.00 -10.04 -4.55 3.22 0.00 -9.61 -0.92 11.75 -0.04 2.08 0.00 0.00 0.00 -1.27 -1.85 -2.15 
-0.3569 40.1768 0.1251 -0.18 -0.14 0.26 -2.96 -2.81 -0.37 -0.00 12.76 0.06 0.87 -6.56 1.46 4.08 -3.21 1.39 0.00 13.12 -0.14 -2.15 -5.69 -0.34 -0.55 -0.09 -0.41 0.00 0.00 0.00 10.16 -4.39 -3.36 0.00 -9.87 0.94 -11.74 0.35 -1.22 0.00 0.00 0.00 -10.03 -4.56 3.21 -0.00 -9.60 -0.92 11.75 -0.04 2.08 0.00 0.00 0.00 -1.27 -1.86 -2.11 
-0.3570 40.1763 0.1222 -0.18 -0.14 0.25 -2.96 -2.83 -0.37 -0.00 12.78 0.06 0.87 -6.56 1.46 4.09 -3.22 1.39 0.00 13.12 -0.14 -2.15 -5.68 -0.34 -0.49 -0.03 -0.41 0.00 0.00 0.00 10.24 -4.33 -3.37 -0.00 -9.84 0.94 -11.82 0.25 -1.23 0.00 0.00 0.00 -9.95 -4.50 3.23 -0.00 -9.58 -0.92 11.66 -0.12 2.10 0.00 0.00 0.00 -1.19 -1.87 -2.09 
-0.3497 40.1764 0.1223 -0.18 -0.14 0.25 -2.97 -2.83 -0.37 -0.00 12.79 0.06 0.88 -6.57 1.46 4.08 -3.22 1.39 0.00 13.12 -0.14 -2.13 -5.69 -0.34 -0.46 0.00 -0.41 0.00 0.00 0.00 10.23 -4.33 -3.37 0.00 -9.85 0.94 -11.81 0.27 -1.25 0.00 0.00 0.00 -9.95 -4.50 3.23 0.00 -9.59 -0.91 11.68 -0.11 2.09 0.00 0.00 0.00 -1.20 -1.77 -1.99 
-0.3441 40.1764 0.1223 -0.18 -0.14 0.26 -2.98 -2.83 -0.37 -0.00 12.80 0.06 0.89 -6.57 1.46 4.07 -3.22 1.39 0.00 13.13 -0.14 -2.12 -5.69 -0.34 -0.44 0.01 -0.41 0.00 0.00 0.00 10.22 -4.34 -3.37 0.00 -9.85 0.94 -11.78 0.29 -1.26 0.00 0.00 0.00 -9.97 -4.51 3.23 0.00 -9.59 -0.91 11.71 -0.08 2.09 0.00 0.00 0.00 -1.31 -1.79 -1.95 
-0.3437 40.1764 0.1223 -0.18 -0.14 0.25 -2.98 -2.83 -0.37 0.00 12.80 0.06 0.89 -6.57 1.46 4.07 -3.22 1.39 0.00 13.13 -0.14 -2.12 -5.69 -0.34 -0.44 0.02 -0.41 0.00 0.00 0.00 10.21 -4.35 -3.36 -0.00 -9.85 0.94 -11.77 0.31 -1.26 0.00 0.00 0.00 -9.98 -4.52 3.23 0.00 -9.59 -0.92 11.73 -0.07 2.08 0.00 0.00 0.00 -1.36 -1.73 -1.93 
-0.3433 40.1763 0.1222 -0.18 -0.14 0.25 -2.98 -2.83 -0.37 -0.00 12.80 0.06 0.89 -6.57 1.46 4.07 -3.22 1.39 0.00 13.13 -0.14 -2.12 -5.69 -0.34 -0.44 0.09 -0.41 0.00 0.00 0.00 10.20 -4.29 -3.38 -0.00 -9.83 0.94 -11.75 0.24 -1.27 0.00 0.00 0.00 -9.98 -4.46 3.24 -0.00 -9.57 -0.91 11.73 -0.14 2.09 0.00 0.00 0.00 -1.31 -1.61 -1.92 
-0.3384 40.1762 0.1211 -0.19 -0.14 0.24 -2.98 -2.83 -0.38 0.00 12.81 0.05 0.89 -6.57 1.50 4.06 -3.23 1.38 -0.00 13.14 -0.14 -2.11 -5.70 -0.30 -0.44 0.18 -0.42 0.00 0.00 0.00 10.20 -4.22 -3.39 -0.00 -9.83 0.94 -11.73 0.18 -1.26 0.00 0.00 0.00 -9.98 -4.39 3.24 0.00 -9.57 -0.91 11.74 -0.20 2.11 0.00 0.00 0.00 -1.29 -1.77 -1.73 
-0.3310 40.1761 0.1192 -0.19 -0.14 0.22 -3.00 -2.84 -0.39 0.00 12.81 0.05 0.91 -6.58 1.54 4.05 -3.28 1.37 0.00 13.23 -0.16 -2.10 -5.74 -0.25 -0.39 0.22 -0.43 0.00 0.00 0.00 10.29 -4.09 -3.39 -0.00 -9.79 0.94 -11.87 0.12 -1.25 0.00 0.00 0.00 -9.90 -4.39 3.25 -0.00 -9.59 -0.92 11.67 -0.15 2.13 0.00 0.00 0.00 -1.28 -1.99 -1.56 
-0.3236 40.1761 0.1010 -0.20 -0.14 0.18 -3.00 -2.89 -0.41 0.00 12.87 0.06 0.92 -6.58 1.58 4.04 -3.31 1.35 -0.00 13.23 -0.17 -2.09 -5.71 -0.19 -0.36 0.30 -0.45 0.00 0.00 0.00 10.29 -3.98 -3.40 0.00 -9.79 0.94 -11.88 0.09 -1.24 0.00 0.00 0.00 -9.91 -4.34 3.26 0.00 -9.69 -0.92 11.70 -0.16 2.14 0.00 0.00 0.00 -1.25 -2.29 -1.40 
